HIERARCHY
ROOT Hips
{
    OFFSET 0.0 0.0 0.0
    CHANNELS 6 Xposition Yposition Zposition Zrotation Xrotation Yrotation
    JOINT LeftHipJoint
    {
        OFFSET 0.1 0.0 0.0
        CHANNELS 3 Zrotation Xrotation Yrotation
        JOINT LeftUpLeg
        {
            OFFSET 126.91874366976555 0.0 0.0
            CHANNELS 3 Zrotation Xrotation Yrotation
            JOINT LeftLeg
            {
                OFFSET 0.0 0.0 -418.9392306074067
                CHANNELS 3 Zrotation Xrotation Yrotation
                JOINT LeftFoot
                {
                    OFFSET 0.0 0.0 -384.584902537146
                    CHANNELS 3 Zrotation Xrotation Yrotation
                    End Site
                    {
                        OFFSET 0.0 -0.1 0.0
                    }
                }
            }
        }
    }
    JOINT LowerBack
    {
        OFFSET 0.0 0.0 0.1
        CHANNELS 3 Zrotation Xrotation Yrotation
        JOINT Spine
        {
            OFFSET 0.0 0.0 218.39257947058877
            CHANNELS 3 Zrotation Xrotation Yrotation
            JOINT Spine1
            {
                OFFSET 0.0 0.0 250.38037030844944
                CHANNELS 3 Zrotation Xrotation Yrotation
                JOINT LeftShoulder
                {
                    OFFSET 0.1 0.0 0.0
                    CHANNELS 3 Zrotation Xrotation Yrotation
                    JOINT LeftArm
                    {
                        OFFSET 140.0949134090973 0.0 0.0
                        CHANNELS 3 Zrotation Xrotation Yrotation
                        JOINT LeftForeArm
                        {
                            OFFSET 267.35865420880486 0.0 0.0
                            CHANNELS 3 Zrotation Xrotation Yrotation
                            JOINT LeftHand
                            {
                                OFFSET 236.24484843133814 0.0 0.0
                                CHANNELS 3 Zrotation Xrotation Yrotation
                                End Site
                                {
                                    OFFSET 0.1 0.0 0.0
                                }
                            }
                        }
                    }
                }
                JOINT Neck
                {
                    OFFSET 0.0 0.0 0.1
                    CHANNELS 3 Zrotation Xrotation Yrotation
                    JOINT Neck1
                    {
                        OFFSET 0.0 0.0 104.3835849281437
                        CHANNELS 3 Zrotation Xrotation Yrotation
                        End Site
                        {
                            OFFSET 0.0 0.0 115.12458230582324
                        }
                    }
                }
                JOINT RightShoulder
                {
                    OFFSET -0.1 0.0 0.0
                    CHANNELS 3 Zrotation Xrotation Yrotation
                    JOINT RightArm
                    {
                        OFFSET -140.0949134090973 0.0 0.0
                        CHANNELS 3 Zrotation Xrotation Yrotation
                        JOINT RightForeArm
                        {
                            OFFSET -267.35865420880486 0.0 0.0
                            CHANNELS 3 Zrotation Xrotation Yrotation
                            JOINT RightHand
                            {
                                OFFSET -236.24484843133814 0.0 0.0
                                CHANNELS 3 Zrotation Xrotation Yrotation
                                End Site
                                {
                                    OFFSET -0.1 0.0 0.0
                                }
                            }
                        }
                    }
                }
            }
        }
    }
    JOINT RightHipJoint
    {
        OFFSET -0.1 0.0 0.0
        CHANNELS 3 Zrotation Xrotation Yrotation
        JOINT RightUpLeg
        {
            OFFSET -126.91874366976555 0.0 0.0
            CHANNELS 3 Zrotation Xrotation Yrotation
            JOINT RightLeg
            {
                OFFSET 0.0 0.0 -418.9392306074067
                CHANNELS 3 Zrotation Xrotation Yrotation
                JOINT RightFoot
                {
                    OFFSET 0.0 0.0 -384.584902537146
                    CHANNELS 3 Zrotation Xrotation Yrotation
                    End Site
                    {
                        OFFSET 0.0 -0.1 0.0
                    }
                }
            }
        }
    }
}
MOTION
Frames: 6
Frame Time: 0.03333333333333333
0.0 0.0 801.8563105645455 27.233435000336048 -2.7245609368130617 2.2287222264895874 0.0 0.0 0.0 -0.0458471826603677 -9.748901045919993 1.8937551133037032 1.154563447805956 28.009497624280225 -2.0903530254220715 0.0 0.0 0.0 0.0 0.0 0.0 0.03213262073919528 6.721596411184319 1.5540682965279038 0.5547762237074729 2.0070709714495147e-16 3.9660229639136324e-16 0.0 0.0 -9.93923337957349e-17 -16.30821166303505 -0.89074403661397 65.39606078878354 -125.74385488622707 5.661320539112522e-15 -2.9005451350635225e-15 -1.7655625192200634e-31 3.1805546814635168e-15 6.3611093629270335e-15 0.0 0.0 -9.93923337957349e-17 -6.760231357590856 -7.628424002205835 -7.463060184300737 0.0 0.0 -9.93923337957349e-17 15.301600043950682 -4.073673101098425 -63.616893041400594 125.66960467232212 -1.139337269944501e-14 1.3031207137769428e-15 0.0 0.0 0.0 0.0 0.0 0.0 -0.02602082996286676 -5.260947804083238 -0.41625790307873783 -0.0736873019393885 27.517702938052317 2.214888621809074 0.0 0.0 7.951386703658792e-16
0.0 0.0 801.8563105645455 27.20308997788236 -2.962186130125671 2.1961535108363552 0.0 0.0 0.0 -0.04120021478020183 -9.510216886396321 1.9254158349551789 1.1524131525026315 27.857535703543906 -2.0750752286925587 0.0 0.0 -7.951386703658792e-16 0.0 0.0 0.0 0.029653598333406788 6.729020204466422 1.6523105924195138 0.5302116443960412 -3.989447303974673e-16 -2.9633427497028055e-16 0.0 0.0 -2.981770013872047e-16 -16.023641318188023 -0.849591453287555 65.39504032396339 -125.00493529221445 4.231874559823069e-15 -2.2027428115706495e-15 0.0 0.0 0.0 0.0 0.0 -2.981770013872047e-16 -6.583470813899403 -7.221158830419846 -7.401970058427406 0.0 0.0 -2.981770013872047e-16 14.987717010971402 -3.781488298037397 -63.746366236668585 124.77808744708977 -5.636674233098898e-15 -2.9481546630115786e-15 0.0 0.0 0.0 0.0 0.0 0.0 -0.022604705911111956 -4.953050730338318 -0.33700235086326635 -0.043140857471582306 27.25863089425915 2.0522736166603233 0.0 -3.975693351829395e-16 0.0
0.0 0.0 801.8563105645455 27.222696037613048 -3.2032768731816783 2.133679717634554 -3.1805546814635168e-15 3.975693351829396e-16 -9.939233379573489e-17 -0.03885323608790644 -9.255365502012689 2.0779810482159236 1.2044903182272417 27.393803886634284 -2.112006157156805 0.0 0.0 -7.951386703658792e-16 -3.1805546814635168e-15 3.975693351829396e-16 -9.939233379573489e-17 0.028834281876741755 6.775382267014206 1.7987952290028844 0.5735125687175406 -2.0226426344578354e-16 -6.947427413460052e-16 0.0 0.0 -2.981770013872047e-16 -15.782328780821535 -0.7883538186021979 65.4255573666112 -124.07820417217177 -1.9337163897998057e-15 8.228273391264249e-15 6.3611093629270335e-15 -3.531125038440127e-31 -6.3611093629270335e-15 0.0 0.0 -2.981770013872047e-16 -6.416633919062374 -6.8565370160297485 -7.429265302683094 0.0 0.0 -2.981770013872047e-16 14.643799698067266 -3.458556957690196 -63.91391082817504 123.7305731537605 8.803859032807771e-15 -9.719199736639865e-15 0.0 0.0 0.0 -3.1805546814635168e-15 3.975693351829396e-16 -9.939233379573489e-17 -0.020392690470773838 -4.658845746108252 -0.19636440997111082 0.024487102765473574 26.961428117615 1.8931958452003843 0.0 0.0 0.0
0.0 0.0 801.8563105645455 27.205936427074043 -3.342671201368104 2.1957471135071276 0.0 0.0 -9.93923337957349e-17 -0.04967133298491742 -9.076257124001476 2.0603777528087774 1.2153302809619708 27.05851498955051 -2.126508566240347 0.0 1.9878466759146977e-16 0.0 0.0 0.0 -9.93923337957349e-17 0.03690753280115787 6.697004483151796 1.7914629629983632 0.5374715568682678 -7.9140047976284545e-16 7.988593686335379e-16 0.0 0.0 -1.987846675914698e-16 -15.365825795640973 -0.7064095568475728 65.43685573753682 -123.12471083797234 -5.593551747214908e-15 3.029173349009104e-15 0.0 0.0 -6.361109362927033e-15 0.0 0.0 -1.987846675914698e-16 -6.095843996041201 -6.667618604336455 -7.3879574402779875 0.0 0.0 -1.987846675914698e-16 14.182245060622847 -3.082758308440735 -63.9926160098907 122.68931154746559 1.75242164026237e-14 -1.217039864400882e-14 0.0 0.0 0.0 0.0 0.0 -9.93923337957349e-17 -0.024518019608936237 -4.3772824788310665 -0.22165123680608015 0.04744228917286359 26.63612415009317 1.7775718734212194 0.0 0.0 0.0
0.0 0.0 801.8563105645455 27.22817785361747 -3.329551277594747 2.197238677695141 0.0 0.0 0.0 -0.04867491758567659 -9.053306180164093 2.1102619397991957 1.2140805209271284 26.61829729667328 -2.0670760782514757 0.0 0.0 0.0 0.0 0.0 0.0 0.03483102957328365 6.456181276553388 1.837856768454194 0.5283623497415845 -6.023052992202808e-16 -1.2893369265209693e-15 0.0 0.0 1.987846675914698e-16 -14.86165581114886 -0.523140461138934 65.46422614838295 -122.41184141674279 -7.94168612764225e-15 -2.893676472514214e-15 0.0 0.0 0.0 0.0 0.0 1.987846675914698e-16 -5.904688369603868 -6.384438565229889 -7.30238625983762 0.0 0.0 1.987846675914698e-16 13.41968931721891 -2.7497003109011215 -64.10719461850866 121.56795991115276 2.0089474383983362e-14 -3.3415670467963954e-15 0.0 0.0 0.0 0.0 0.0 0.0 -0.023062790609276462 -4.232775091313085 -0.17287303550326233 0.06719911999109536 26.162567583399365 1.7462861459311796 0.0 0.0 0.0
0.0 0.0 801.8563105645455 27.06362387159738 -3.4001137621289605 2.1819530553981985 0.0 0.0 0.0 -0.039473272417761454 -8.962183838628215 2.1858971469644795 1.2214831510837525 26.570268607064907 -2.207727024967822 0.0 0.0 -7.951386703658792e-16 0.0 0.0 0.0 0.027587750302446135 6.228298909019603 1.8924546270509675 0.530332976287459 -1.9786256096614771e-16 1.9970251652600625e-16 0.0 0.0 -9.939233379573489e-17 -14.11889974990373 -0.607832746207878 65.23047949865058 -121.62988934980226 -2.5272131514200488e-14 -7.742780629518762e-15 0.0 0.0 0.0 0.0 0.0 -9.939233379573489e-17 -5.668309712738267 -6.159672479214857 -7.187985933600199 0.0 0.0 -9.939233379573489e-17 12.525694690842782 -2.335545379006382 -64.37486914169669 120.25113471232017 5.926393715089542e-15 -3.9316024649809945e-15 0.0 0.0 0.0 0.0 0.0 0.0 -0.01811688679454386 -4.031204842644861 -0.15809821523061623 0.04672231739638616 25.86695678539162 1.7827463812886584 0.0 0.0 7.951386703658792e-16
